osimModel_states
nRows=50
nColumns=7
endheader
time	q1	q2	q3	q1_u	q2_u	q3_u
     11.81760945	    -48.95052270	     97.90087548	     -5.09428432	    -98.14629968	    196.29226695	    -98.14596727
     11.85800050	    -51.52582871	    103.05147816	     -7.66958099	    -26.93380827	     53.86751246	    -26.93370419
     11.91700451	    -49.74878230	     99.49739207	     -5.89254131	     85.70491881	   -171.40953034	     85.70461153
     11.97600851	    -42.08372246	     84.16729478	      1.77249614	    163.99451842	   -327.98864696	    163.99412854
     12.00871565	    -36.49759892	     72.99505929	      7.35860809	    171.80189039	   -343.60347172	    171.80158133
     12.05102252	    -30.08510512	     60.17008158	     13.77109199	    117.08598974	   -234.17182567	    117.08583593
     12.07837001	    -27.92143077	     55.84273559	     15.93476364	     36.21410088	    -72.42815810	     36.21405722
     12.10571751	    -28.24125291	     56.48237954	     15.61494183	    -58.90616234	    117.81225646	    -58.90609411
     12.13190406	    -30.78965679	     61.57918412	     13.06654113	   -130.58964188	    261.17910948	   -130.58946760
     12.15809061	    -34.77328483	     69.54643430	      9.08291898	   -167.85842551	    335.71657731	   -167.85815180
     12.19336299	    -40.86039193	     81.72063692	      2.99582347	   -169.16008716	    338.31980078	   -169.15971362
     12.22863537	    -46.23430500	     92.46844941	     -2.37807594	   -130.09753888	    260.19469890	   -130.09716002
     12.26390776	    -49.73192914	     99.46368650	     -5.87568890	    -64.94692155	    129.89361519	    -64.94669364
     12.31283068	    -50.27147409	    100.54277458	     -6.41523203	     43.99778822	    -87.99541371	     43.99762550
     12.36175359	    -45.63633950	     91.27252035	     -1.78011240	    140.06731633	   -280.13423401	    140.06691769
     12.41067651	    -37.43873350	     74.87732738	      6.41747458	    182.13768995	   -364.27503842	    182.13734847
     12.44980688	    -30.83585983	     61.67159062	     13.02033767	    141.12572131	   -282.25125137	    141.12553006
     12.47678604	    -28.03208260	     56.06403972	     15.82411134	     59.98549130	   -119.97091119	     59.98541988
     12.50376520	    -27.83544080	     55.67075638	     16.02075288	    -46.06940531	     92.13875894	    -46.06935364
     12.52809129	    -29.99703841	     59.99394900	     13.85915787	   -126.76150679	    253.52285186	   -126.76134507
     12.55241737	    -33.70994771	     67.41976238	     10.14625379	   -172.30312621	    344.60598710	   -172.30286089
     12.58494527	    -39.59024429	     79.18034502	      4.26596772	   -180.38941986	    360.77846766	   -180.38904780
     12.61747317	    -44.96855359	     89.93695089	     -1.11232884	   -144.32680909	    288.65322671	   -144.32641762
     12.65000107	    -48.66871417	     97.33726096	     -4.81247834	    -79.51738913	    159.03451607	    -79.51712694
     12.69336260	    -49.82178261	     99.64339400	     -5.96554293	     28.08478333	    -56.16946510	     28.08468177
     12.73672413	    -46.33277464	     92.66538936	     -2.47654625	    128.76689960	   -257.53342055	    128.76652095
     12.78008566	    -39.27111265	     78.54208272	      4.58509839	    186.55331432	   -373.10624734	    186.55293303
     12.82344719	    -31.40344547	     62.80676170	     12.45275223	    157.34309292	   -314.68596769	    157.34287477
     12.84634366	    -28.49817866	     56.99623184	     15.35801528	     90.26353671	   -180.52696467	     90.26342795
     12.86924012	    -27.49908301	     54.99804173	     16.35710974	     -5.71994011	     11.43987519	     -5.71993508
     12.89213659	    -28.74793838	     57.49575105	     15.10825579	   -100.16242794	    200.32473679	   -100.16230884
     12.91503305	    -31.84260411	     63.68507850	     12.01359407	   -163.84404205	    327.68785524	   -163.84381319
     12.93792952	    -35.95738023	     71.91462436	      7.89882433	   -189.62489443	    379.24946371	   -189.62456927
     12.96865621	    -41.69301385	     83.38588022	      2.16320209	   -175.81002005	    351.61963869	   -175.80961864
     12.99938290	    -46.36624067	     92.73232182	     -2.51001268	   -123.22611518	    246.45187228	   -123.22575710
     13.03010959	    -49.02318036	     98.04619291	     -5.16694409	    -46.94650221	     93.89284800	    -46.94634580
     13.07350840	    -48.44813528	     96.89610474	     -4.59190100	     72.99158727	   -145.98293403	     72.99134675
     13.11690722	    -43.04412565	     86.08810086	      0.81209326	    168.26315690	   -336.52589925	    168.26274236
     13.15549400	    -35.80056323	     71.60099095	      8.05564073	    194.54837800	   -389.09642255	    194.54804455
     13.18636655	    -30.34318208	     60.68623686	     13.51301368	    146.54789030	   -293.09558853	    146.54769822
     13.20836850	    -27.94418459	     55.88824485	     15.91200820	     65.63397548	   -131.26787395	     65.63389847
     13.23037044	    -27.62815666	     55.25618939	     16.22803573	    -37.88257067	     75.76509992	    -37.88252925
     13.25097384	    -29.33631984	     58.67251376	     14.51987454	   -123.75614590	    247.51214045	   -123.75599455
     13.27157724	    -32.50100982	     65.00188952	     11.35518876	   -177.48620300	    354.97215074	   -177.48594774
     13.29699300	    -37.35825714	     74.71637625	      6.49794935	   -196.86026747	    393.72017454	   -196.85990707
     13.32862245	    -43.22589762	     86.45164473	      0.63032135	   -165.72016014	    331.43991284	   -165.71975270
     13.36025191	    -47.41995532	     94.83974862	     -3.56372484	    -94.42311260	    188.84593647	    -94.42282387
     13.39188137	    -48.97844951	     97.95673207	     -5.12221409	     -2.22783427	      4.45566303	     -2.22782876
     13.43421621	    -46.41352328	     92.82688766	     -2.55729593	    119.82575931	   -239.65116741	    119.82540810
     13.47655105	    -39.48365488	     78.96716788	      4.37255546	    195.55312961	   -391.10585860	    195.55272899
